<svg xmlns="http://www.w3.org/2000/svg" xmlns:xlink="http://www.w3.org/1999/xlink" width="500" zoomAndPan="magnify" viewBox="0 0 375 374.999991" height="500" preserveAspectRatio="xMidYMid meet" version="1.0"><defs><g/><clipPath id="e6ecd162d9"><path d="M 17.296875 137.1875 L 184.265625 137.1875 L 184.265625 155.550781 L 17.296875 155.550781 Z M 17.296875 137.1875 " clip-rule="nonzero"/></clipPath><clipPath id="00c934f399"><path d="M 190.734375 137.1875 L 357.703125 137.1875 L 357.703125 155.550781 L 190.734375 155.550781 Z M 190.734375 137.1875 " clip-rule="nonzero"/></clipPath></defs><rect x="-37.5" width="450" fill="#ffffff" y="-37.499999" height="449.999989" fill-opacity="1"/><rect x="-37.5" width="450" fill="#f2f1ec" y="-37.499999" height="449.999989" fill-opacity="1"/><g fill="#000000" fill-opacity="1"><g transform="translate(110.922535, 221.283148)"><g><path d="M 18.84375 -43.46875 C 21.144531 -43.46875 23.398438 -43.128906 25.609375 -42.453125 C 27.816406 -41.785156 29.457031 -41.125 30.53125 -40.46875 L 32.078125 -39.4375 L 28.15625 -31.671875 C 27.84375 -31.878906 27.410156 -32.144531 26.859375 -32.46875 C 26.304688 -32.800781 25.269531 -33.242188 23.75 -33.796875 C 22.226562 -34.347656 20.816406 -34.625 19.515625 -34.625 C 17.890625 -34.625 16.632812 -34.273438 15.75 -33.578125 C 14.875 -32.890625 14.4375 -31.960938 14.4375 -30.796875 C 14.4375 -30.203125 14.644531 -29.65625 15.0625 -29.15625 C 15.476562 -28.65625 16.1875 -28.117188 17.1875 -27.546875 C 18.1875 -26.984375 19.0625 -26.53125 19.8125 -26.1875 C 20.570312 -25.84375 21.75 -25.328125 23.34375 -24.640625 C 26.101562 -23.460938 28.457031 -21.863281 30.40625 -19.84375 C 32.351562 -17.820312 33.328125 -15.535156 33.328125 -12.984375 C 33.328125 -10.535156 32.882812 -8.394531 32 -6.5625 C 31.125 -4.738281 29.914062 -3.304688 28.375 -2.265625 C 26.84375 -1.234375 25.144531 -0.46875 23.28125 0.03125 C 21.425781 0.53125 19.410156 0.78125 17.234375 0.78125 C 15.367188 0.78125 13.539062 0.585938 11.75 0.203125 C 9.957031 -0.171875 8.457031 -0.640625 7.25 -1.203125 C 6.039062 -1.773438 4.953125 -2.335938 3.984375 -2.890625 C 3.015625 -3.441406 2.304688 -3.910156 1.859375 -4.296875 L 1.1875 -4.859375 L 6.0625 -13.046875 C 6.46875 -12.703125 7.03125 -12.257812 7.75 -11.71875 C 8.476562 -11.1875 9.765625 -10.472656 11.609375 -9.578125 C 13.460938 -8.679688 15.097656 -8.234375 16.515625 -8.234375 C 20.617188 -8.234375 22.671875 -9.628906 22.671875 -12.421875 C 22.671875 -13.003906 22.519531 -13.546875 22.21875 -14.046875 C 21.925781 -14.546875 21.410156 -15.046875 20.671875 -15.546875 C 19.929688 -16.046875 19.273438 -16.441406 18.703125 -16.734375 C 18.140625 -17.035156 17.207031 -17.488281 15.90625 -18.09375 C 14.613281 -18.695312 13.660156 -19.148438 13.046875 -19.453125 C 10.453125 -20.734375 8.445312 -22.328125 7.03125 -24.234375 C 5.625 -26.148438 4.921875 -28.210938 4.921875 -30.421875 C 4.921875 -34.253906 6.332031 -37.382812 9.15625 -39.8125 C 11.988281 -42.25 15.21875 -43.46875 18.84375 -43.46875 Z M 18.84375 -43.46875 "/></g></g></g><g fill="#000000" fill-opacity="1"><g transform="translate(145.687706, 221.283148)"><g><path d="M 30.421875 -23.265625 C 32.910156 -20.554688 34.15625 -17.234375 34.15625 -13.296875 C 34.15625 -9.367188 32.910156 -6.039062 30.421875 -3.3125 C 27.941406 -0.582031 24.785156 0.78125 20.953125 0.78125 C 17.441406 0.78125 14.546875 -0.320312 12.265625 -2.53125 L 12.265625 13.453125 L 3.109375 13.453125 L 3.109375 -26.546875 L 12.15625 -26.546875 L 12.15625 -23.546875 L 12.265625 -23.546875 C 14.546875 -26.066406 17.441406 -27.328125 20.953125 -27.328125 C 24.785156 -27.328125 27.941406 -25.972656 30.421875 -23.265625 Z M 22.640625 -8.796875 C 23.828125 -9.972656 24.421875 -11.472656 24.421875 -13.296875 C 24.421875 -15.128906 23.851562 -16.625 22.71875 -17.78125 C 21.582031 -18.9375 20.082031 -19.515625 18.21875 -19.515625 C 16.425781 -19.515625 14.953125 -18.925781 13.796875 -17.75 C 12.640625 -16.570312 12.0625 -15.085938 12.0625 -13.296875 C 12.0625 -11.472656 12.65625 -9.972656 13.84375 -8.796875 C 15.03125 -7.617188 16.488281 -7.03125 18.21875 -7.03125 C 19.976562 -7.03125 21.453125 -7.617188 22.640625 -8.796875 Z M 22.640625 -8.796875 "/></g></g></g><g fill="#000000" fill-opacity="1"><g transform="translate(181.021949, 221.283148)"><g><path d="M 3.109375 0 L 3.109375 -44.5 L 12.265625 -44.5 L 12.265625 0 Z M 3.109375 0 "/></g></g></g><g fill="#000000" fill-opacity="1"><g transform="translate(196.386916, 221.283148)"><g><path d="M 3.984375 -41.34375 C 5.054688 -42.414062 6.332031 -42.953125 7.8125 -42.953125 C 9.300781 -42.953125 10.578125 -42.414062 11.640625 -41.34375 C 12.710938 -40.28125 13.25 -39.003906 13.25 -37.515625 C 13.25 -36.035156 12.710938 -34.757812 11.640625 -33.6875 C 10.578125 -32.613281 9.300781 -32.078125 7.8125 -32.078125 C 6.332031 -32.078125 5.054688 -32.613281 3.984375 -33.6875 C 2.910156 -34.757812 2.375 -36.035156 2.375 -37.515625 C 2.375 -39.003906 2.910156 -40.28125 3.984375 -41.34375 Z M 3.109375 -26.546875 L 3.109375 0 L 12.265625 0 L 12.265625 -26.546875 Z M 3.109375 -26.546875 "/></g></g></g><g fill="#000000" fill-opacity="1"><g transform="translate(212.010554, 221.283148)"><g><path d="M 4.65625 -26.546875 L 4.65625 -36.4375 L 13.8125 -36.4375 L 13.8125 -26.546875 L 19.40625 -26.546875 L 19.40625 -19.5625 L 13.8125 -19.5625 L 13.8125 -11.125 C 13.8125 -8.675781 14.503906 -7.453125 15.890625 -7.453125 C 16.234375 -7.453125 16.59375 -7.519531 16.96875 -7.65625 C 17.351562 -7.789062 17.648438 -7.929688 17.859375 -8.078125 L 18.171875 -8.28125 L 20.4375 -0.875 C 18.46875 0.226562 16.226562 0.78125 13.71875 0.78125 C 11.988281 0.78125 10.503906 0.476562 9.265625 -0.125 C 8.023438 -0.726562 7.082031 -1.539062 6.4375 -2.5625 C 5.800781 -3.582031 5.34375 -4.648438 5.0625 -5.765625 C 4.789062 -6.890625 4.65625 -8.085938 4.65625 -9.359375 L 4.65625 -19.5625 L 0.828125 -19.5625 L 0.828125 -26.546875 Z M 4.65625 -26.546875 "/></g></g></g><g fill="#000000" fill-opacity="1"><g transform="translate(232.445438, 221.283148)"><g><path d="M 30.421875 -44.5 L 9.109375 6.203125 L 1.1875 6.203125 L 22.515625 -44.5 Z M 30.421875 -44.5 "/></g></g></g><g clip-path="url(#e6ecd162d9)"><path fill="#1da1f2" d="M 28.46875 139.710938 C 27.457031 141.089844 26.398438 142.554688 26.109375 142.949219 C 25.820312 143.355469 23.71875 146.246094 21.429688 149.382812 C 19.132812 152.519531 17.296875 155.117188 17.332031 155.164062 C 17.457031 155.28125 85.179688 155.339844 129.222656 155.246094 L 171.316406 155.164062 L 171.792969 154.503906 C 172.046875 154.144531 173.300781 152.425781 174.578125 150.683594 C 175.84375 148.941406 177.121094 147.1875 177.414062 146.78125 C 178.34375 145.503906 182.894531 139.257812 183.589844 138.316406 C 183.960938 137.816406 184.265625 137.351562 184.265625 137.292969 C 184.265625 137.238281 153.65625 137.191406 107.277344 137.191406 L 30.300781 137.191406 Z M 28.46875 139.710938 " fill-opacity="1" fill-rule="nonzero"/></g><g clip-path="url(#00c934f399)"><path fill="#4ddde0" d="M 201.90625 139.710938 C 200.894531 141.089844 199.839844 142.554688 199.550781 142.949219 C 199.257812 143.355469 197.15625 146.246094 194.871094 149.382812 C 192.570312 152.519531 190.734375 155.117188 190.769531 155.164062 C 190.898438 155.28125 258.621094 155.339844 302.664062 155.246094 L 344.757812 155.164062 L 345.230469 154.503906 C 345.488281 154.144531 346.742188 152.425781 348.019531 150.683594 C 349.285156 148.941406 350.5625 147.1875 350.851562 146.78125 C 351.78125 145.503906 356.332031 139.257812 357.03125 138.316406 C 357.402344 137.816406 357.703125 137.351562 357.703125 137.292969 C 357.703125 137.238281 327.09375 137.191406 280.714844 137.191406 L 203.742188 137.191406 Z M 201.90625 139.710938 " fill-opacity="1" fill-rule="nonzero"/></g></svg>